<svg width="130" height="192" viewBox="0 0 130 192" fill="none" xmlns="http://www.w3.org/2000/svg">
<path fill-rule="evenodd" clip-rule="evenodd" d="M41.7765 2.24948C35.2783 5.62203 22.1212 8.64872 10.8705 9.35925L0.957093 9.98466L0.316794 16.8005C-0.566875 26.213 0.469459 43.4351 2.53944 53.7337C9.62585 88.9896 28.9858 116.832 59.097 135.07L63.9338 138L66.0038 137.481C73.788 135.532 95.6911 116.916 105.514 103.901C122.585 81.2822 132.421 45.5864 129.485 16.9063L128.797 10.1863L125.205 9.96494C108.855 8.95605 96.5829 6.3666 87.5513 2.02009C81.8362 -0.73153 80.8142 -0.679556 83.5146 2.2217C90.6899 9.93269 103.614 17.3874 114.906 20.3281L121.613 22.0753L118.021 23.0251C116.045 23.5474 113.216 24.2499 111.735 24.5859C110.253 24.9219 105.808 26.7524 101.856 28.6546C84.0974 37.2007 71.9201 52.4417 67.0168 72.2604L65.095 80.0242L63.5072 73.0748C57.8756 48.4276 38.7537 29.2971 14.0101 23.5546L6.98652 21.9248L14.4591 19.9374C26.4335 16.7522 34.9344 12.3179 42.8129 5.14806C49.1341 -0.605168 48.8441 -1.41786 41.7765 2.24948Z" fill="white"/>
<path fill-rule="evenodd" clip-rule="evenodd" d="M7.56938 164.249C6.78902 164.377 6.77407 164.207 7.75361 166.342C15.5072 183.245 19.152 190.969 19.5876 191.419C20.1081 191.958 23.071 192.163 24.1101 191.732L24.9212 191.395L26.3507 188.378C27.1373 186.719 28.5039 183.835 29.3881 181.971C33.0594 174.228 37.4041 164.741 37.4044 164.467C37.405 164.092 33.1085 164.177 32.3814 164.566C32.0691 164.734 30.059 168.754 27.3963 174.539C24.9421 179.869 22.7835 184.53 22.5993 184.896L22.2641 185.56L20.287 181.223C19.1997 178.837 17.1788 174.363 15.7961 171.281C14.4137 168.198 13.0028 165.369 12.6612 164.995L12.0396 164.314L10.5452 164.292C9.72312 164.28 8.8601 164.242 8.62735 164.207C8.39459 164.173 7.91865 164.191 7.56938 164.249ZM46.5732 164.534C46.0648 164.855 45.3662 165.792 44.8243 166.88C38.132 180.317 33.1736 190.532 33.1731 190.884C33.1714 191.716 33.8293 192 35.7588 192H37.6685L38.7803 190.493C41.6549 186.596 44.6065 185.502 52.2388 185.502L56.1654 185.503L57.5713 188.373C59.363 192.031 59.3278 192 61.6305 192C63.5794 192 64.206 191.717 64.206 190.836C64.206 190.062 51.9471 165.361 51.2615 164.755L50.6428 164.207L49.0313 164.103L47.4195 164L46.5732 164.534ZM68.1854 164.912L67.5915 165.55V178.161V190.771L68.2443 191.386L68.8974 192H70.2192H71.5412L72.1055 191.435L72.6697 190.87V186.915V182.96H76.4558H80.242L81.6368 184.527C82.4042 185.389 83.7121 187.245 84.5435 188.651C85.3749 190.058 86.3091 191.386 86.6194 191.604L87.1837 192H89.5191C90.8033 192 91.8542 191.921 91.8542 191.823C91.8542 191.277 88.741 185.817 87.4483 184.096C85.6342 181.681 85.6452 181.891 87.277 180.841C90.085 179.033 91.1419 176.719 90.9543 172.789L90.8394 170.388L90.0317 168.903C89.1171 167.222 88.0503 166.311 85.7138 165.214L84.0958 164.455L76.4375 164.364L68.7792 164.274L68.1854 164.912ZM96.3753 164.872C95.5092 165.739 95.4953 165.982 95.5817 178.818L95.6629 190.92L96.329 191.46L96.9951 192H103.326H109.658L111.688 191.541C117.578 190.209 121.269 186.4 122.501 180.383L123 177.948L122.494 175.59C122.215 174.293 121.592 172.419 121.109 171.426L120.23 169.621L118.624 168.168C116.772 166.491 114.712 165.376 112.32 164.752L110.638 164.314H103.785H96.9325L96.3753 164.872ZM83.5236 169.54C85.0006 170.285 85.6901 171.526 85.7076 173.472L85.7214 175.012L85.1859 175.948C84.8567 176.525 84.1093 177.158 83.2446 177.592L81.8388 178.298H77.3248H72.8108L72.7335 173.548L72.6559 168.797L77.5296 168.886L82.4031 168.975L83.5236 169.54ZM110.679 169.234C113.52 169.991 115.977 172.219 116.84 174.82L117.312 176.242L117.173 178.682L117.034 181.123L116.421 182.339C115.506 184.152 113.557 185.925 111.68 186.654L110.051 187.286L105.467 187.416L100.882 187.546V178.19V168.834L105.044 168.837C107.693 168.839 109.741 168.983 110.679 169.234ZM48.9712 170.211C48.9712 170.346 50.1082 172.794 51.4979 175.649L54.0244 180.841L49.8757 181.015C47.2647 181.124 45.204 181.359 44.3162 181.648C43.5403 181.9 42.8785 182.107 42.8457 182.109C42.8127 182.111 43.4938 180.618 44.3593 178.792C45.2249 176.967 46.5136 174.234 47.2229 172.718C48.3573 170.296 48.9712 169.415 48.9712 170.211Z" fill="white"/>
</svg>
