<svg width="116" height="28" viewBox="0 0 116 28" fill="none" xmlns="http://www.w3.org/2000/svg">
<path fill-rule="evenodd" clip-rule="evenodd" d="M0.569375 0.248605C-0.210983 0.376866 -0.225932 0.206511 0.753606 2.34204C8.50725 19.2452 12.152 26.9688 12.5876 27.4194C13.1081 27.9582 16.071 28.1627 17.1101 27.7316L17.9212 27.3951L19.3507 24.3782C20.1373 22.7187 21.5039 19.8353 22.3881 17.9707C26.0594 10.2281 30.4041 0.741311 30.4044 0.466707C30.405 0.091528 26.1085 0.17657 25.3814 0.566158C25.0691 0.733689 23.059 4.75443 20.3963 10.5389C17.9421 15.8694 15.7835 20.53 15.5993 20.8956L15.2641 21.5604L13.287 17.2229C12.1997 14.8374 10.1788 10.3632 8.79614 7.28068C7.41373 4.19788 6.00282 1.36935 5.66117 0.994732L5.03965 0.313586L3.54523 0.291834C2.72312 0.279969 1.8601 0.241826 1.62735 0.207359C1.39459 0.17261 0.918646 0.190972 0.569375 0.248605ZM39.5732 0.533947C39.0648 0.854601 38.3662 1.7917 37.8243 2.88023C31.132 16.3175 26.1736 26.5323 26.1731 26.8841C26.1714 27.7161 26.8293 28 28.7588 28H30.6685L31.7803 26.4928C34.6549 22.5963 37.6065 21.5019 45.2388 21.5024L49.1654 21.5027L50.5713 24.3734C52.363 28.0313 52.3278 28 54.6305 28C56.5794 28 57.206 27.7166 57.206 26.8357C57.206 26.0617 44.9471 1.36143 44.2615 0.754593L43.6428 0.206799L42.0313 0.103399L40.4195 0L39.5732 0.533947ZM61.1854 0.911955L60.5915 1.55016V14.1607V26.7713L61.2443 27.3858L61.8974 28H63.2192H64.5412L65.1055 27.435L65.6697 26.8699V22.9147V18.9595H69.4558H73.242L74.6368 20.5269C75.4042 21.3889 76.7121 23.2447 77.5435 24.6514C78.3749 26.0577 79.3091 27.3864 79.6194 27.6042L80.1837 28H82.5191C83.8033 28 84.8542 27.9206 84.8542 27.8231C84.8542 27.2768 81.741 21.8172 80.4483 20.0961C78.6342 17.6814 78.6452 17.8911 80.277 16.8407C83.085 15.0331 84.1419 12.7188 83.9543 8.78902L83.8394 6.38764L83.0317 4.90332C82.1171 3.22207 81.0503 2.31068 78.7138 1.21424L77.0958 0.454844L69.4375 0.364152L61.7792 0.273755L61.1854 0.911955ZM89.3753 0.871554C88.5092 1.73887 88.4953 1.98211 88.5817 14.8176L88.6629 26.9202L89.329 27.4601L89.9951 28H96.3263H102.658L104.688 27.5406C110.578 26.2088 114.269 22.3997 115.501 16.3833L116 13.948L115.494 11.5899C115.215 10.2928 114.592 8.4192 114.109 7.42617L113.23 5.62062L111.624 4.16793C109.772 2.49149 107.712 1.37556 105.32 0.752049L103.638 0.313586H96.7853H89.9325L89.3753 0.871554ZM76.5236 5.5401C78.0006 6.28481 78.6901 7.52617 78.7076 9.47157L78.7214 11.0116L78.1859 11.9484C77.8567 12.5247 77.1093 13.1575 76.2446 13.5918L74.8388 14.298H70.3248H65.8108L65.7335 9.54757L65.6559 4.79737L70.5296 4.88608L75.4031 4.97507L76.5236 5.5401ZM103.679 5.23358C106.52 5.991 108.977 8.2189 109.84 10.8203L110.312 12.2416L110.173 14.6823L110.034 17.1232L109.421 18.3394C108.506 20.152 106.557 21.9254 104.68 22.654L103.051 23.286L98.4668 23.4159L93.8822 23.5461V14.1898V4.83382L98.0436 4.8372C100.693 4.83918 102.741 4.98327 103.679 5.23358ZM41.9712 6.21079C41.9712 6.3464 43.1082 8.79382 44.4979 11.6492L47.0244 16.8407L42.8757 17.0147C40.2647 17.1243 38.204 17.3588 37.3162 17.6475C36.5403 17.8995 35.8785 18.1072 35.8457 18.1089C35.8127 18.1106 36.4938 16.6181 37.3593 14.7924C38.2249 12.9668 39.5136 10.2335 40.2229 8.71839C41.3573 6.29611 41.9712 5.41523 41.9712 6.21079Z" fill="#1378B7"/>
</svg>
